<?xml version="1.0" encoding="UTF-8"?><svg id="Layer_2" xmlns="http://www.w3.org/2000/svg" viewBox="0 0 643.82 396.23"><defs><style>.cls-1{font-family:Verdana, Verdana;font-size:108px;}.cls-1,.cls-2{fill:#000;}.cls-2,.cls-3,.cls-4,.cls-5{stroke-width:0px;}.cls-3{fill:#5f82f2;}.cls-4{fill:#f25e5e;}.cls-5{fill:#5e81f2;}</style></defs><g id="Vector_layer"><path class="cls-2" d="M643.3,278.22c-2.05-1.2-4.07-2.44-6.14-3.6-7.07-3.88-14.38-7.29-21.81-10.39-7.7-3.2-15.49-6.2-23.09-8.9-8.16-2.79-16.42-5.23-24.79-7.3-8.38-2.07-16.84-3.75-25-5.2-.12-.02-.25-.04-.36-.06h0c-8.5-1.39-17.03-2.62-25.59-3.52-4.35-.46-8.71-.91-13.08-1.25-4.55-.36-9.11-.67-13.66-.94-13.51-.82-27.06-.98-40.41-.86-17.56.23-35.12,1.21-52.61,2.79-17.45,1.58-34.85,3.71-52.13,6.55-5.42.89-10.82,1.82-15.89,2.74-8.59,1.61-17.16,3.29-25.7,5.14-8.44,1.83-16.83,3.82-25.25,5.77-7.93,1.83-15.88,3.64-23.79,5.57-3.7.9-7.38,1.83-11.07,2.79-2.87.74-5.74,1.48-8.58,2.34-.01,0-.02-.02,0-.03,6.98-2.62,13.93-5.31,20.96-7.8,8.18-2.89,16.42-5.65,24.77-8.02,4.32-1.23,8.67-2.34,13.02-3.45,4.08-1.04,8.17-2.04,12.28-2.98,8.58-1.96,17.18-3.81,25.83-5.46,17.34-3.3,34.78-6.09,52.3-8.16,17.56-2.08,35.19-3.48,52.86-4.26,17.84-.78,35.71-.71,53.55.07,17.58.77,35.12,2.6,52.49,5.38,8.56,1.37,17.11,3.02,25.53,5.06,4.53,1.1,9.04,2.27,13.52,3.52,4.15,1.16,8.25,2.48,12.33,3.84,4.05,1.34,8.09,2.81,12.02,4.5,4.11,1.77,8.11,3.74,12.02,5.91,7.48,4.14,14.55,9.05,20.92,14.75,1.7,1.52,3.38,3.1,4.95,4.75.26.23.09.75-.21.75-.05,0-.12-.02-.18-.05Z"/><path class="cls-2" d="M604.72,62.52c7.3-3.64,15.4-5.23,22.74-8.75,2.19-1.25,5.47-2.75,6-5.43.72-4.94-2.75-8.77-5.79-12.19-7.13-8.38-10.76-19.52-19.38-26.66-6.07-4.91-13.88-4.63-21.21-3.78-6.02.92-11.04,4.84-15.8,8.37-1.51,1.29-2.91,2.62-4.25,4.07-.3.26-.65.76-1.05.76,1-.54,1.52-1.73,2.31-2.55.6-.74,1.22-1.44,1.86-2.14,3.32-3.5,7.02-6.67,10.99-9.41,4.75-3.01,10.51-3.83,15.98-4.66,13.49-1.41,21.86,7.07,29.36,17,2.39,3.2,4.54,6.59,6.99,9.76,2.76,3.34,6.04,6.32,8.04,10.21,1.67,3.1,2.3,6.68,2.09,10.17-.14,9.03-9.18,13.66-16.63,16.34-8.38,2.93-17.24,4.35-25.38,8.01-9.36,4-17.09,10.84-25.42,16.45,8.24-9.81,16.51-20.29,28.54-25.56Z"/><path class="cls-2" d="M585.8,76.92c.82-.89,1.66-1.76,2.51-2.61.6,1.38,1.08,2.73,1.45,4.08-1.27.88-2.53,1.78-3.79,2.68.05-1.38,0-2.76-.17-4.14Z"/><path class="cls-4" d="M310.91,172.27c-1.34-.08-2.67-.2-4-.35-1.88-.22-3.75-.52-5.6-.89-30.29-5.56-32.84-44.05-16.99-65.11,2.27-3.31,5.09-6.27,7.89-9.1-4.05-28.83,38.39-50.03,64.66-41.03,1.7.55,3.4,1.17,5.08,1.84,3.79-6.33,10.42-11.68,15.81-15.87,16.87-13.15,40.25-15.95,60.17-8.66,2.74,1.12,5.21,2.98,7.13,5.2,5.74-6.81,13.61-11.95,22.04-14.78,17.3-8.22,38.14-5.93,54.51,3.45,1.77.99,3.53,2.07,5.2,3.27,8.31-13.96,24.39-23.28,40.86-21.88,1.29.01,2.57.01,3.86,0-1.79.81-3.74,1.48-5.64,2.09-3.1.98-6.24,1.8-9.24,3.07-5.59,2.48-10.7,5.87-15.55,9.56-7.37,5.68-14.11,12.65-17.65,21.4-.93,2.6-2.63,6.87-1.55,9.5.06.02.12.04.16.05.2-.05.38-.17.55-.27-.25.25-.77.57-1,.07-1.28-3.25-.48-7.01.09-10.35.84-4.3,2.39-8.41,4.5-12.19-4.96-1.58-10.14-2.47-15.3-3.2-15.77-2.12-32.15,1.17-46.96,5.82-11.51,2.84-23.21,10.6-27.51,21.95.01.04,0,.24-.05.18,1.28-6.62,4.36-12.6,8.6-17.66-4.39-2.71-9.65-2.89-14.68-2.85-19.19.11-38.43,4.38-54.92,14.46-3.72,2.4-7.89,5.16-11.13,8.55,1.33.56,2.65,1.15,3.94,1.75-1.67-.21-3.33-.41-5-.57-2.05,2.4-3.6,5.11-4.23,8.21-.06-2.96.7-5.77,1.99-8.43-3.02-.27-6.05-.44-9.09-.45-20.75,1.84-54.93,13.13-57.6,35.7.04-.04.08-.07.12-.12-.04.07-.09.14-.12.2-.47,4.07.09,8.5,1.94,13.32-2.01-3.6-3.25-7.14-3.83-10.57-1.12,1.56-2.25,3.14-3.16,4.84-8.7,14.61-7.76,34.27-.41,49.24,6.24,10.62,18.09,15.38,28.57,20.73-.46,0-.93,0-1.4,0-1.67,0-3.35-.05-5.03-.15Z"/><path class="cls-5" d="M490.45,191.96c-7.3-1.39-13.86-5.04-20.39-8.32,0-.01-.02-.03-.03-.04,31.72,12.22,46.56,1.19,69.08-21.57,2.76-2.66,5.56-5.36,8.38-7.96-4.49.76-9.04.52-13.33-1.12-3.59-1.4-6.81-3.77-9.05-6.73,18.2,15.3,43.74-9.54,47.29-28.08.13-.62.25-1.22.38-1.81.08-.41.16-.82.24-1.22.03-.18.07-.36.1-.55.12-.67.25-1.31.36-1.92.03-.19.06-.36.1-.55.07-.45.15-.88.22-1.29,1.05-6.08,1.24-8.15,2.02-3.3.02.08.04.16.05.25.01.08.02.17.04.25.19,1.22.41,2.82.68,4.81.18,1.34.39,2.85.62,4.56.27,8.99-2.2,18.45-8.23,25.31-5.33,5.2-12.68,9.6-20.34,11.18-1.75,2.76-3.55,5.49-5.44,8.16-10.09,15.02-25.26,31.09-44,31.1-2.83,0-5.75-.37-8.73-1.16Z"/><path class="cls-5" d="M398.59,185.54c.04-.31.09-.66.21-.91-.16.54-.12,1.09.13,1.58.67,1.24,1.72,2.12,2.93,2.79-.26.22-.53.43-.79.64-1.29-1.18-2.2-2.54-2.48-4.09Z"/><path class="cls-2" d="M343.25,138.46c-.56-.04-1.11-.08-1.67-.15-2.21-.25-4.36-.75-6.41-1.46-5.98-2.19-11.81-6.21-14.29-12.27-3.54-9.59,5.4-17.97,12.73-22.73-2.2.46-4.46.98-6.62,1.45,1.6-.89,3.22-1.75,4.86-2.57,10.29-5.59,20.75-8.34,29.69,1.28,7.48,7.74,8.86,21.07,1.44,29.31-4.54,4.97-11.21,7.2-17.88,7.2-.62,0-1.23-.02-1.85-.05ZM335.58,101.42c-3.23,2.06-5.96,4.83-8.3,7.85-9.49,12.17,1.04,20.05,13.13,21.8,12.02,1.44,21.74-5.89,18.52-18.61-2.05-7.5-8.42-13.2-16.49-12.06.01.03-.01.04-.01.01h0c-2.32.1-4.59.52-6.85,1.01Z"/><path class="cls-2" d="M259.75,134.18c-.12.07-.26.2-.35.2.16-.12.28-.18.35-.2Z"/><path class="cls-2" d="M369.7,167.57c-.31-.02-.62-.05-.95-.09-1.57-.18-3.12-.58-4.62-1.23-7.98-2.79-9.29-12.79-4.52-19.05,4.75-7.07,13.41-10.4,21.61-11.27,7.55-1.39,17.23,2.77,15.78,11.74-1.07,6.47-6.35,11.17-9.91,16.37.96-2.05,1.99-4.2,3-6.26-4.61,5.45-11.98,9.82-19.29,9.82-.36,0-.73-.02-1.09-.04ZM368.35,148.4c-7.82,5.94-6.69,14.29,3.48,15.88,7.3.23,16.95-2.76,19.91-9.99,1.84-3.78,3.18-9.99-1.68-12.02-.51-.11-1.03-.18-1.55-.24-.34-.04-.69-.07-1.04-.09-.41-.02-.81-.04-1.22-.04-6.36,0-12.83,2.95-17.9,6.5Z"/><path class="cls-2" d="M350.89,222.04s0,0,0,0c.19-.77.44-1.53.63-2.29.11-.42.19-.87.24-1.29-.01-.16.01-.3.04-.45.08-.47.18-.94.28-1.41.26-1.2.52-2.38.79-3.58.52-2.3,1.12-4.59,1.74-6.87,1.36-5,2.88-9.96,4.52-14.87,1.33-3.95,2.79-7.84,4.32-11.64,1.86-4.66,3.81-9.28,5.82-13.88,1.75-4,3.58-7.96,5.29-11.97,0-.01.02,0,.01,0-1.21,4.54-2.32,9.11-3.51,13.65-1.35,5.14-2.78,10.26-4.3,15.34-2.92,9.72-6.54,19.25-10.7,28.5-.7,1.54-1.43,3.06-2.17,4.59-.32.68-.67,1.35-1,2.03-.13.26-.26.55-.45.77,0,.01,0,.02-.02.03-.17.29-.3.57-.46.85-.43.79-.7,1.67-1.06,2.49h0s0,0,0,0Z"/><path class="cls-2" d="M350.89,222.05c.19-.78.44-1.53.64-2.29.11-.43.18-.87.24-1.3,0-.02,0-.04,0-.06.5-.45,1.02-.89,1.55-1.32-.14.27-.27.55-.41.83-.12.26-.25.55-.45.77,0,.01-.01.02-.02.02-.16.29-.3.58-.46.85-.43.79-.7,1.67-1.06,2.49,0,0,0,0,0,0,0,0,0,0,0,0Z"/><path class="cls-2" d="M488.53,170.94c-.43-.03-.87-.07-1.31-.12-1.82-.21-3.71-.63-5.67-1.3-14.42-4.55-13.12-21.15.78-24.98,4.57-.59,10.08-1.86,14.05,1.15.56.45,1.12,1.07,1.54,1.6-1.55-1.4-3.57-2.38-5.7-2.28-3.98.36-8.27,1.12-11.64,3.35-3.9,3.08-6.59,9.72-1.54,13.05,6.16,4.11,16.48,5.63,21.89-.38,5.77-7.19-1.86-14.33-7.14-18.91,21.34,9.22,13.3,28.88-3.88,28.88-.46,0-.92-.01-1.4-.04Z"/><path class="cls-2" d="M350.4,229.81c-.58-.04-1.16-.31-1.65-.93-.98-1.44-.95-3.29-1.33-4.95-.83-4.88-1.79-9.77-3.58-14.4,2.75,3.57,4.55,8.51,6.68,12.69,3.94-4.93,9.19-8.82,14.98-11.28-1.43,2.19-3.12,4.34-4.7,6.46-2.53,3.39-4.96,6.86-7.38,10.33-.59,1.15-1.75,2.07-2.9,2.07-.05,0-.09,0-.13,0Z"/><path class="cls-2" d="M507.05,220.38c-.66-.04-1.29-.35-1.71-1-4.1-5.03-7.05-11.36-12-15.56-.09.01-.18.02-.27.03.62,1.05-.46,0-.15-.24,4.2-.25,9.27,6.33,12.79,8.64,2.34-6.25,7.27-10.81,10.94-16.16-.43,6.21-3.53,11.78-5.42,17.61-.64,1.71-.84,3.54-1.59,5.19-.47.93-1.48,1.49-2.45,1.49-.04,0-.09,0-.13,0Z"/><path class="cls-2" d="M506.67,216.54s-.03,0-.04-.03c-2.29-5.37-4.43-10.79-6.33-16.3-1.31-3.81-2.51-7.66-3.59-11.54-1.1-4-1.99-8.05-2.84-12.11-.84-4-1.61-8-2.36-12.02-.36-1.9-.7-3.81-1.05-5.7-.21-1.15-.45-2.3-.61-3.46,0,0,.01-.02.02,0,2.51,6.72,5.06,13.42,7.39,20.21,1.32,3.84,2.58,7.7,3.66,11.61,1.07,3.9,1.99,7.84,2.82,11.8,1.21,5.79,2.18,11.62,2.97,17.49,0,.03-.02.07-.04.07,0,0,0,0,0,0Z"/><path class="cls-2" d="M251.76,149.27c-5.45-.83-5.26-4.58-2.11-8.17,2.99-4.8,7.01-8.86,9.79-13.69-1.2,5.14-5.07,10.98-6.82,16.5,6.04,1.73,12.03,5.51,14.88,11.24-4.8-3.13-10.22-4.66-15.73-5.88Z"/><path class="cls-2" d="M249.3,144.78s-.04-.06,0-.07c.68-.34,1.41-.61,2.11-.91,1.51-.66,3.01-1.32,4.52-1.98,3.46-1.51,6.92-3.03,10.4-4.51,6.84-2.92,13.71-5.78,20.7-8.32,3.83-1.38,7.68-2.7,11.58-3.87,3.49-1.05,7.01-2.01,10.53-2.92,7.1-1.83,14.27-3.3,21.46-4.71,4.29-.84,8.6-1.6,12.9-2.39,0,0,.01.02,0,.02-11.55,5.21-23.07,10.49-34.99,14.83-3.65,1.32-7.33,2.6-11.03,3.78-3.67,1.17-7.4,2.18-11.13,3.14-7.09,1.82-14.23,3.34-21.41,4.79-3.23.66-6.47,1.3-9.7,1.94-1.37.27-2.75.54-4.13.81-.59.12-1.2.28-1.79.36h0Z"/><path class="cls-2" d="M345.17,196.78c-3.98-1.95-7.62-4.32-11.04-7.13-1.57-1.3-3.06-2.79-4.4-4.32-1.42-1.61-2.79-3.26-3.95-5.06-1.85-2.87-3.42-5.89-4.55-9.12-.63-1.82-1.27-3.75-1.56-5.66,0,0,.02-.02.02,0,.14.45.32.89.49,1.33h0s0,0,0,.01c.48,1.21,1.04,2.38,1.64,3.52.86,1.55,1.82,3,2.85,4.43,1.02,1.29,2.08,2.5,3.2,3.68,1.4,1.34,2.84,2.58,4.37,3.77,1.42,1,2.86,1.92,4.37,2.79,2.48,1.28,4.99,2.35,7.62,3.27,2.71.82,5.44,1.47,8.23,1.97,4.82.68,9.64,1.04,14.51,1.02,5.56-.18,11.04-.75,16.53-1.71,5.27-1.05,10.44-2.38,15.52-4.17.24-.09.49-.18.66-.25,2.31-.88,4.61-1.79,6.85-2.82,1.16-.53,2.34-1.04,3.46-1.64,0,0,.01,0,0,.02-1.69,2.05-3.41,4.03-5.36,5.85-2.85,2.68-6.02,5.07-9.39,7.07-3.78,2.25-7.73,4.05-11.91,5.45-4.16,1.39-8.54,2.15-12.91,2.48-1.24.1-2.49.14-3.74.14-7.41,0-14.9-1.65-21.54-4.91Z"/><path class="cls-3" d="M424.97,193.12c-3.36-.87-6.65-1.98-9.81-3.42-2.86-1.31-5.61-2.89-7.97-4.97,0,0,0-.02,0-.02h0s0,0,0,0c.82.55,1.7,1.02,2.59,1.46h0c1.69.78,3.43,1.39,5.21,1.9h0,.04c2.52.66,5.05,1.07,7.64,1.35,4.73.42,9.45.36,14.18.1,3.75-.28,7.49-.65,11.22-1.15,3.83-.51,7.62-1.24,11.39-2.09.32-.08.65-.16.97-.23,2.96-.77,5.88-1.66,8.51-2.72.32-.14.65-.27.77-.33,1.22-.55,2.39-1.15,3.53-1.83.74-.48,1.45-.98,2.06-1.48.49-.43.96-.88,1.38-1.33.25-.29.5-.58.71-.89.22-.34.41-.69.61-1.03,0-.02.04,0,.03.02h0c-.41,1.72-1.12,3.21-2.12,4.68-1.95,2.87-4.82,5.22-7.77,7.01-6.54,3.96-14,6-21.57,6.75-1.87.19-3.76.27-5.65.27-5.38,0-10.8-.73-15.98-2.06Z"/><path class="cls-2" d="M284.96,247.93c-4.02-1.27-8.02-2.57-12.05-3.78-5.77-1.73-11.57-3.34-17.38-4.91-6.02-1.62-12.07-3.14-18.12-4.63-5.84-1.44-11.68-2.88-17.56-4.15-9.73-2.11-19.53-3.92-29.27-5.36-.38-.05-.75-.11-.8-.12-.38-.05-.75-.11-.79-.11-.29-.04-.59-.09-.86-.13-.14-.02-.29-.04-.43-.06-.24-.03-.48-.07-.64-.09-.07-.01-.14-.02-.2-.03-12.05-1.68-24.17-3-36.32-3.74-12.58-.77-25.16-1.07-37.77-.8-1.52.03-3.04.08-4.53.12-.04,0-.07,0-.11,0h-.11c-12.04.42-24.1,1.31-36.04,2.96-6.22.86-12.4,1.91-18.56,3.14-.96.21-1.92.41-2.82.59-10.57,2.24-21.04,5.1-31.05,8.95-5.19,2.06-10.23,4.4-15.05,7.18-1.52.9-3.01,1.83-4.47,2.82-.01,0-.02-.01-.01-.02,9.27-7.42,20.15-12.41,31.24-16.45,5.75-2.09,11.67-3.77,17.61-5.22,5.84-1.42,11.75-2.61,17.68-3.57,5.95-.97,11.91-1.84,17.9-2.49,6.32-.69,12.65-1.21,19-1.61,12.44-.77,24.91-.87,37.37-.59,12.16.27,24.33,1.02,36.42,2.31,5.95.64,11.89,1.32,17.68,2.17.18.02.37.05.5.07l.22.04c.42.06.85.12,1.06.15.27.04.53.08.94.14,6.01.87,12,1.91,17.96,3.07,6.24,1.21,12.46,2.52,18.63,4.05,5.97,1.49,11.88,3.27,17.7,5.27s11.56,4.23,17.17,6.74c5.41,2.43,10.75,5.07,15.88,8.06,0,0,0,.02,0,.02h0Z"/><path class="cls-2" d="M143.56,55.49s-.02.08-.02.12c-.05.03-.13.06-.19.09.06-.08.14-.15.21-.22Z"/><path class="cls-2" d="M98.95,90.21c-.08.04-.17.07-.26.11.07-.13.14-.19.26-.11Z"/><path class="cls-2" d="M128.32,64.99c4.67-3.54,10.42-4.79,15.88-6.55.07-.06.12-.09.16-.16,0-.01.02-.03.02,0,0,.12-.22.25-.3.29-3.88,1.96-8.13,3.53-11.57,6.23-3.14,2.39-6,5.14-9.05,7.63-6.04,4.9-12.11,9.94-18.31,14.56,6.78-8.25,14.33-15.93,23.18-21.99Z"/><path class="cls-2" d="M104.44,132.93c0-9.53.36-19.07.79-28.59.12-5.45.93-11.01.11-16.36h0c-.07-.12-.14-.22-.29-.22-.02.02-.01.15-.05.13-.03-.31.33-.14.41.05,1,3.39.96,7.06,1.27,10.58.41,8.26.78,16.53,1.09,24.79.6,19.05,1.21,38.23.81,57.23-2.34-15.77-3.76-31.68-4.13-47.61Z"/><path class="cls-2" d="M113.9,115.32c-4.53-2.58-.34-9.63,3.66-5.4,1.78,2.12.17,5.73-2.35,5.73-.41,0-.85-.11-1.32-.33Z"/><path class="cls-2" d="M114.92,144.91c-2.66-.42-3.37-4.03-1.26-5.68,2.23-1.49,3.88.55,4.08,2.6.15,1.57-.52,3.11-2.41,3.11-.13,0-.28,0-.42-.04Z"/><path class="cls-2" d="M116.3,55.35c-1.5-.15-2.96-.48-4.36-1.06-2.75-1.18-4.99-3.16-6.82-5.47-.94-1.19-1.69-2.51-2.38-3.85-.34-.66-.62-1.36-.89-2.05-.27-.67-.5-1.36-.71-2.05-.4-1.42-.75-2.87-.93-4.34-.2-1.56-.28-3.11-.23-4.68.07-2.95.58-5.93,1.52-8.73.5-1.47,1.09-2.93,1.84-4.3.75-1.35,1.6-2.62,2.56-3.83.91-1.09,1.96-2.08,3.09-2.94.66-.5,1.37-.93,2.09-1.34.11-.12.21-.24.32-.35.55-.56,1.24-.96,1.98-1.25.89-.35,1.86-.56,2.83-.71,1.23-.2,2.51-.22,3.75-.08,5.51.63,9.95,4.62,12.62,9.25,2.92,5.08,3.88,11.21,3.25,16.98-.33,2.99-1.09,5.9-2.26,8.67-.62,1.42-1.37,2.78-2.22,4.07-.82,1.24-1.81,2.35-2.86,3.4-1.05,1.02-2.28,1.93-3.55,2.65-1.3.75-2.71,1.38-4.19,1.7-1.08.23-2.2.39-3.32.39-.37,0-.74-.01-1.13-.06ZM116.36,11.13c-.51.1-1.01.23-1.51.41-.74.28-1.48.6-2.26.8-.25.06-.51.1-.75.14-.23.16-.45.33-.67.49-.72.58-1.39,1.19-2.02,1.84-.54.58-1.04,1.19-1.53,1.8-.58.81-1.11,1.63-1.61,2.49-.46.87-.87,1.74-1.26,2.65-.41,1.05-.75,2.13-1.06,3.22-.24,1.06-.45,2.12-.6,3.2-.12,1.02-.19,2.05-.21,2.83,0,1.29.05,2.57.18,3.85.15,1.22.37,2.44.66,3.65.25.94.53,1.86.87,2.76.38.91.78,1.8,1.24,2.66.4.68.81,1.36,1.26,2,.51.68,1.03,1.3,1.6,1.92.52.53,1.06,1,1.63,1.47.63.46,1.27.88,1.95,1.27.64.33,1.3.62,1.98.87.61.19,1.23.35,1.86.47.71.08,1.4.14,2.11.14.56-.04,1.13-.1,1.5-.14.84-.16,1.66-.39,2.47-.68.62-.25,1.21-.54,1.8-.87.49-.31.98-.62,1.43-.98.62-.49,1.2-1.01,1.78-1.57.6-.64,1.17-1.31,1.71-2.02.52-.75,1.02-1.49,1.47-2.28.47-.88.9-1.77,1.29-2.69.36-.93.67-1.88.94-2.85.29-1.2.52-2.41.65-3.41.11-.96.2-1.93.21-2.89v-.02c0-.07,0-.13,0-.18v-.4c-.02-1.11-.08-2.24-.2-3.35-.14-1.05-.32-2.09-.57-3.12-.26-1.03-.58-2.04-.94-3.01,0,0,0,0,0,0v-.05c-.37-.9-.78-1.77-1.24-2.63-.39-.7-.82-1.39-1.3-2.07-.48-.63-1-1.24-1.53-1.84-.54-.52-1.08-1-1.65-1.46-.55-.41-1.14-.79-1.75-1.12-.7-.36-1.41-.68-2.16-.94-.58-.19-1.16-.34-1.77-.43-.65-.09-1.29-.13-1.96-.13-.68.02-1.34.08-2.01.2Z"/><path class="cls-2" d="M56.49,130.14c-1.88-3.98-3.69-7.99-5.12-12.15-.74-2.75-2.45-5.53-1.74-8.42.82-2.61,2.22-5.02,3.57-7.38,3.57-5.96,7.24-11.86,11.17-17.59,5.41-7.3,10.9-14.7,14.32-23.15-2.21,7.37-7.58,16.85-12.11,24.34-2.25,4.07-4.36,8.2-6.62,12.22-2.12,3.97-4.59,7.85-5.86,12.2,2.27,8.6,6.36,16.82,8.8,25.44,1.67,6.27,3.6,12.52,5.6,18.65-5.09-7.49-8.14-16.02-12.01-24.15Z"/><path class="cls-2" d="M98.68,65.91c-3.59-2.71-6.62-6.03-10.01-8.95.13.18.42.36.5.52-.24-.25-.61-.43-.76-.75,0-.03.03-.07.07-.07.66.19,1.25.61,1.8.92,2.31,1.3,4.56,2.7,6.81,4.12,4.64,3.14,9.61,6.21,12.6,10.99-3.73-2.15-7.56-4.19-11.02-6.77Z"/><path class="cls-2" d="M156.49,112.21s-.05-.03-.07-.06c-.03,0-.05-.01-.08-.03-.08.04-.26.24-.31.22.43-.56.68-.12.58.42-1.54,7.35-2.14,14.86-2.88,22.32-1.62,20.88-.57,41.95-1.6,62.81-4.85-31.64-4.79-54.8,4.37-85.69Z"/><path class="cls-2" d="M64.15,213.34c-2.15-22.99,10.64-47.08,14.64-68.8-1.01,20.44-7.5,40.06-9.26,60.42,9.43-3.24,19.67-2.78,29.73-2.32,3.61.16,7.2.34,10.72.34-12.96,3.31-28.09,1.6-39.78,8.3-.79,1.56-2.33,3.29-3.93,3.29-.72,0-1.44-.35-2.11-1.23Z"/><path class="cls-2" d="M78.82,143.64s.07.09.09.15c-.04.25-.09.5-.13.75.01-.3.03-.6.04-.9Z"/><path class="cls-2" d="M115.68,202.85c10.27-3.16,21.9-5.66,32.22-1.7-10.68.81-21.48,1.09-32.19,1.7,0,0,0,0,0,0,0,0-.01.01-.01.01-.01,0-.01-.01,0-.02Z"/><path class="cls-2" d="M198.82,97.58c-.7-.03-1.54-.08-2.26-.13-.77-.06-1.38-.09-1.47-.09-6.89-.77-14.62-2.64-22.92-4.63-1.08-.28-2.17-.56-3.27-.84-2.28-.43-4.7-.53-6.9-2.83-1.95-1.45-2.88-4.16-4.06-6.34-.93-1.74-1.91-3.41-2.87-5.05-3.37-5.69-6.81-10.99-9.62-16.26-.1-.19-.28-.54.03-.44,0,0,0,.02,0,.02-.04,0-.1-.03-.13,0,0,.03-.01.06-.01.08.02.04.05.11.07.16h0c3.89,6.22,8.9,12.21,13.35,18.98,1.11,1.65,1.99,3.49,3.11,5.19.6.61,1.27,1.11,1.91,1.63,1.74,1.27,3.51.82,5.23,1.39,3.24.78,6.39,1.44,9.44,2.15,7.52,1.95,14.74,4.47,21.57,7v.03c-.12.01-.28.02-.46.02-.2,0-.45,0-.72-.02Z"/><path class="cls-2" d="M183.09,119.22c-.8-.08-1.62-.18-2.42-.31-5.73-.98-11.37-2.66-16.68-5.02-3-1.41-5.96-4.03-7.87-6.34,3.85,3.04,8.5,4.33,13.28,4.95,3.96.62,7.88,1.49,11.72,2.63,4.99,1.3,10.12,2.54,14.88,4.47-4.29-.03-8.62.04-12.91-.39Z"/><path class="cls-2" d="M201.18,97.81s.07.01.1.02c-.03,0-.09,0-.13.01l.03-.03Z"/><path class="cls-2" d="M203.26,103.71c.43-1.49,1.73-3.42.67-4.86-.74-.5-1.96-.34-2.51.34-.02.05.06.15.02.14-.33-.21.44-.72.53-.77.54-.3,1.12-.48,1.75-.37,4.6,1.18-4.63,17.86-5.95,20.78,1.4-5.22,3.3-10.3,5.48-15.25Z"/><path class="cls-2" d="M214.55,105.45c-.16-.06-.31-.1-.47-.15-.49-.14-.98-.24-1.47-.31-.42-.05-.84-.07-1.26-.06.03-.12.05-.25.07-.38,1.25.14,2.47.48,3.59,1.08-.16-.06-.3-.12-.46-.18Z"/><path class="cls-2" d="M208.22,119.57c.04-.22.09-.46.13-.68.22-1.05.43-2.1.65-3.15.11.09.23.19.34.27.5.35,1,.67,1.53.93.48.22.98.41,1.47.57.12.03.26.06.38.09.13.03.24.06.37.08.22.05.45.09.68.12.34.03.69.04,1.04.03.39-.01.78-.07,1.04-.11.26-.06.52-.12.76-.2-.13.7-.29,1.39-.43,2.09-.56.26-1.16.45-1.77.58-.69.15-1.39.23-2.08.23-1.42,0-2.82-.31-4.11-.87Z"/><path class="cls-2" d="M218.57,108.09c-.07-.08-.14-.16-.23-.25-.37-.38-.76-.72-1.19-1.04-.45-.34-.93-.63-1.4-.86-.13-.06-.27-.12-.41-.18-.06-.03-.11-.06-.17-.08,1.31.26,2.51.85,3.56,1.65-.06.25-.1.51-.16.76h0Z"/><path class="cls-2" d="M208.81,119.13c-.16-.07-.31-.15-.45-.24.22-1.06.42-2.11.65-3.15,0,0,0,0,0,0,.12.09.23.18.33.27.5.35,1.01.66,1.54.92.48.24.98.41,1.47.58.12.02.26.06.37.08.13.03.25.06.38.08-.69.99-1.7,1.65-3.01,1.66-.4,0-.84-.06-1.29-.2Z"/><path class="cls-2" d="M205.04,117.42c-2.45-2.41-3.38-5.95-2.46-9.23.84-3.02,3.46-5.25,6.5-5.87,2.86-.58,5.84.33,8.09,2.14,2.52,2.05,4.06,5.4,3.52,8.62.01,1.42-.46,2.83-1.31,4-1.17,1.63-3,2.7-4.96,3.12-.7.15-1.39.23-2.08.23-2.7,0-5.35-1.11-7.29-3.02ZM211.16,104.93c-.33.02-.66.06-.98.12-.36.06-.71.16-1.05.27-.25.09-.48.19-.72.29-.2.11-.39.22-.58.34-.16.12-.3.22-.45.35-.15.14-.3.28-.44.42-.13.16-.26.33-.39.49-.09.15-.17.28-.26.44-.08.16-.16.32-.24.49-.06.19-.12.37-.16.56-.04.17-.07.33-.09.5-.02.23-.04.46-.04.7.02.21.03.43.06.65.05.29.11.57.2.87.12.33.24.65.37.96.23.44.47.86.74,1.27.31.46.65.88,1.02,1.29.38.39.79.75,1.22,1.06.5.35,1,.67,1.54.93.48.23.97.41,1.47.57.47.12.94.23,1.43.29.34.04.69.04,1.04.04.39-.01.78-.07,1.04-.11.3-.07.6-.14.89-.24.25-.09.5-.19.73-.3.2-.11.4-.22.6-.35.18-.12.34-.25.51-.39.16-.15.33-.3.48-.47.14-.16.29-.32.41-.49.15-.22.29-.44.42-.67.13-.24.24-.5.34-.74.1-.26.19-.53.26-.81h0s.02-.08.02-.12c0-.12,0-.24,0-.36,0-.29-.03-.58-.07-.84-.05-.34-.13-.67-.22-.99-.11-.35-.24-.68-.39-1.01-.18-.39-.4-.75-.64-1.09-.26-.37-.55-.71-.85-1.03-.37-.37-.76-.72-1.17-1.04-.46-.33-.94-.63-1.41-.87-.55-.25-1.1-.46-1.68-.64-.49-.13-.98-.24-1.48-.31-.37-.05-.75-.07-1.12-.07-.11,0-.22,0-.33.01Z"/><path class="cls-2" d="M193.14,200.68c-2.61-.96-1.11-4.13-.76-6.08.69-3,1.37-6,2.11-8.98,1.71-5.62,2.32-11.47,3.43-17.23,1.34-9.97,4.02-19.65,6.86-29.29,1.88-7.54,3.38-15.17,5.09-22.75.08.05.16.1.24.16.26.15.52.29.78.43h0s.07.03.11.05c.33.15.65.28.98.39h0c.13.05.25.09.38.13.06.01.13.03.19.04.06.02.13.03.19.04h0c.13.03.24.06.37.08.1.02.2.05.32.07,0,0,.02,0,.02,0,.08,0,.17.02.26.03-2.36,10.19-4.46,20.46-7.27,30.54-.6,5.8-1.79,11.5-2.71,17.25-.64,3.92-2.42,7.56-3.12,11.45-.79,5.66-2.03,11.23-3.65,16.71-.9,2.08-.82,6.98-3.48,6.98-.11,0-.22,0-.34-.03Z"/><path class="cls-2" d="M215.76,105.94c-.13-.06-.27-.12-.41-.18-.06-.03-.11-.06-.17-.07-.07-.04-.14-.06-.21-.09.01,0,.03.01.03.02-.16-.06-.3-.12-.46-.18-.01,0-.02,0-.03-.02-.14-.04-.29-.09-.44-.13-.46-.14-.94-.23-1.4-.3,1.6-5.78,3.39-11.52,4.81-17.32,1.53-6.29,3.35-12.12,4.58-18.36,1.3-6.11,1.02-12.49,2.74-18.51,2.88-11.21,15.57-13.88,19.07-1.47,1.62,6.5.62,13.48-1.33,19.8-.25.8-.58,1.59-1.17,2.19-.37.39-1,.36-1.37.02-.72-.55-.36-1.67-.12-2.31,1.4-5.88,2.18-12.29.26-18.14-1.76-5.33-7.34-6.09-9.97-.91-2.12,3.94-2.09,8.33-2.66,12.55-.62,6-1.98,11.89-3.65,17.68-2.33,8.9-4.71,17.46-7.27,26.19-.27-.18-.55-.34-.82-.47Z"/><text class="cls-1" transform="translate(38.34 363.48)"><tspan x="0" y="0">ShEPhERD</tspan></text></g></svg>